<?xml version="1.0" encoding="utf-8"?>
<!-- Generator: Adobe Illustrator 22.0.1, SVG Export Plug-In . SVG Version: 6.00 Build 0)  -->
<svg version="1.1" xmlns="http://www.w3.org/2000/svg" xmlns:xlink="http://www.w3.org/1999/xlink" x="0px" y="0px"
	 viewBox="0 0 280 280" style="enable-background:new 0 0 280 280;" xml:space="preserve">
<g id="Layer_1">
</g>
<g id="Layer_2">
	<g>
		<path style="fill:#FF452F;" d="M139.9,140.3L139.9,140.3L139.9,140.3c0,0,74.9,71,138.7-19.9c-7.3-51.9-43.1-94.7-91.1-112
			C237.9,107.6,139.9,140.3,139.9,140.3z"/>
		<path style="fill:#FFE700;" d="M139.9,140.3L139.9,140.3L139.9,140.3c0,0,23.8-100.4-86.8-110C20.7,55.9,0,95.5,0,140
			c0,6.8,0.5,13.4,1.4,19.9C65.2,69.5,139.9,140.3,139.9,140.3z"/>
		<path style="fill:#FFAD11;" d="M139.9,140.3L139.9,140.3L139.9,140.3c0,0,98-32.7,47.7-132C172.7,2.9,156.7,0,140,0
			c-32.9,0-63.1,11.3-86.9,30.3C163.7,39.9,139.9,140.3,139.9,140.3z"/>
		<path style="fill:#3BD500;" d="M139.9,140.3L139.9,140.3L139.9,140.3c0,0-74.7-70.8-138.5,19.6c7.3,51.6,42.8,94.2,90.4,111.6
			C42.4,172.8,139.9,140.3,139.9,140.3z"/>
		<path style="fill:#C052D8;" d="M139.9,140.3L139.9,140.3L139.9,140.3c0,0-23.7,100.1,86.4,110C259,224.6,280,184.8,280,140
			c0-6.7-0.5-13.2-1.4-19.7C214.8,211.2,139.9,140.3,139.9,140.3z"/>
		<path style="fill:#00ACFF;" d="M139.9,140.3L139.9,140.3L139.9,140.3c0,0-97.5,32.5-48.1,131.2c15,5.5,31.2,8.5,48.2,8.5
			c32.5,0,62.5-11.1,86.3-29.7C116.1,240.4,139.9,140.3,139.9,140.3z"/>
	</g>
</g>
</svg>
