<svg xmlns="http://www.w3.org/2000/svg" viewBox="0 0 1049.97 1018.1"><defs><style>.cls-1{fill:#ffadb2;}</style></defs><title>Recurso 1</title><g id="Capa_2" data-name="Capa 2"><g id="Capa_1-2" data-name="Capa 1"><path class="cls-1" d="M525,0C235.05,0,0,227.91,0,509.06s235.05,509,525,509,525-227.91,525-509S814.92,0,525,0ZM392.5,594.1c-48.33,0-87.5-37.83-87.5-84.49s39.17-84.51,87.5-84.51S480,462.93,480,509.61,440.83,594.1,392.5,594.1Zm263,0c-48.33,0-87.5-37.83-87.5-84.49s39.17-84.51,87.5-84.51S743,462.93,743,509.61,703.83,594.1,655.5,594.1Z"/></g></g></svg>